<?xml version="1.0" standalone="no"?><!DOCTYPE svg PUBLIC "-//W3C//DTD SVG 1.1//EN" "http://www.w3.org/Graphics/SVG/1.1/DTD/svg11.dtd"><svg t="1526297296762" class="icon" style="" viewBox="0 0 1024 1024" version="1.1" xmlns="http://www.w3.org/2000/svg" p-id="8263" xmlns:xlink="http://www.w3.org/1999/xlink" width="200" height="200"><defs><style type="text/css"></style></defs><path d="M223.825428 380.983634H114.787784c-20.325148 0-36.859872 16.534724-36.859872 36.859872V918.496808c0 20.325148 16.534724 36.859872 36.859872 36.859872H816.036604c19.436415 0 35.406978-15.120738 36.765674-34.217224l82.673621-480.800166c0.235494-1.376102 0.355288-2.768586 0.355288-4.164142 0-20.325148-16.534724-36.859872-36.859872-36.859871H582.243653a350.71144 350.71144 0 0 0 43.020589-72.181868c19.999552-45.054026 30.141136-93.083463 30.141137-142.753164v-0.122866c-0.005119-1.030029-0.151535-25.450718-2.348793-43.389188a24.694066 24.694066 0 0 0-0.329691-1.969956c-5.895532-42.644824-42.284416-74.522469-85.623435-74.522469-47.376198 0-86.331963 37.787512-87.299534 84.62105-3.938887 62.254276-31.197786 120.17854-76.75454 163.101861-45.749244 43.104548-105.579983 68.658678-168.470091 68.658678M211.538804 906.210184H127.074408V430.130129h84.463372V906.210184h0.001024z m593.963044 0H260.685299v-479.28072c65.798967-5.782904 127.535156-33.333611 176.067321-79.059305 54.66319-51.50348 87.371206-121.029389 92.100532-195.768922l-20.408082-1.29112 20.408082 1.29112c0-20.560641 17.370215-38.577951 38.250308-38.577952 19.048363 0 34.993329 14.241221 37.09127 33.126786l0.060409-0.007167c0.008191 0.067576 0.011263 0.134129 0.019454 0.201705 1.797943 14.676372 1.976099 36.307998 1.98429 37.601165-0.009215 42.734926-8.726575 84.032316-25.914538 122.749516-16.617659 37.435295-40.295007 70.655255-70.373686 98.734286-0.020478 0.019454-0.037884 0.040955-0.057337 0.059385a24.579391 24.579391 0 0 0-1.614667 1.667909l-0.161774 0.186348a24.692018 24.692018 0 0 0-2.667222 3.745372l-0.149487 0.260067a24.712496 24.712496 0 0 0-0.967571 1.909546l-0.093174 0.204777a23.989633 23.989633 0 0 0-0.797607 2.05289l-0.047098 0.140273c-0.233446 0.704433-0.435151 1.423201-0.605117 2.154254l-0.028668 0.12389a24.291679 24.291679 0 0 0-0.414674 2.359032 24.8927 24.8927 0 0 0-0.177132 2.155279l-0.006143 0.244708c-0.006143 0.232422-0.017406 0.462796-0.017407 0.696242 0 0.488393 0.01843 0.971667 0.046075 1.452894 0.003072 0.059385 0.009215 0.119795 0.013311 0.17918 0.049146 0.749484 0.127986 1.489753 0.242661 2.218759l0.007167 0.039932a24.370519 24.370519 0 0 0 2.116371 6.766858l0.029692 0.058361a24.665397 24.665397 0 0 0 1.120131 2.05289c0.025597 0.041979 0.054266 0.082935 0.079863 0.124914 0.403411 0.652215 0.834467 1.284976 1.295215 1.895212 0.038908 0.052218 0.080887 0.102389 0.120818 0.153583a24.767786 24.767786 0 0 0 1.474395 1.747772c0.022525 0.024573 0.041979 0.052218 0.064505 0.076791 0.088054 0.094197 0.181228 0.182252 0.270306 0.274402 0.157678 0.163822 0.317404 0.327643 0.479178 0.487369 0.150511 0.148463 0.304094 0.292831 0.457677 0.437199a25.054474 25.054474 0 0 0 1.949478 1.641288c0.097269 0.07372 0.196586 0.145392 0.295902 0.218088 0.23447 0.172013 0.468939 0.340954 0.708529 0.503751 0.078839 0.053242 0.159726 0.10546 0.239589 0.157679 0.260067 0.172013 0.520134 0.341978 0.784296 0.502728 0.063481 0.038908 0.127986 0.074744 0.191467 0.112627 0.282592 0.168941 0.566209 0.334811 0.85392 0.490441 0.053242 0.028669 0.108532 0.05529 0.162798 0.083959 0.298975 0.159726 0.599997 0.316381 0.904091 0.462796 0.063481 0.030717 0.130033 0.058361 0.194538 0.088054 0.297951 0.140272 0.595901 0.278497 0.897947 0.405458 0.150511 0.063481 0.304094 0.119795 0.455629 0.180204 0.220135 0.088054 0.439247 0.17918 0.66143 0.261091a24.327515 24.327515 0 0 0 3.558002 1.004432l0.125938 0.022525c0.356312 0.069624 0.713648 0.135153 1.076103 0.189419 0.184299 0.027645 0.368599 0.047099 0.553922 0.070648 0.218088 0.027645 0.434127 0.059385 0.654263 0.081911 0.829347 0.083959 1.661766 0.126962 2.495208 0.126962l0.044028-0.002048h357.421984L805.501848 906.210184z" fill="#1296db" p-id="8264"></path></svg>