<?xml version="1.0" standalone="no"?><!DOCTYPE svg PUBLIC "-//W3C//DTD SVG 1.1//EN" "http://www.w3.org/Graphics/SVG/1.1/DTD/svg11.dtd"><svg t="1526297372485" class="icon" style="" viewBox="0 0 1024 1024" version="1.1" xmlns="http://www.w3.org/2000/svg" p-id="8558" xmlns:xlink="http://www.w3.org/1999/xlink" width="200" height="200"><defs><style type="text/css"></style></defs><path d="M910.867608 66.143935c-37.181964 0-361.169645 19.264981-361.169645 19.264981s-0.017-0.001-0.05-0.001c-0.247-0.005-0.495-0.007-0.742999-0.007-1.568998 0-3.136997 0.092-4.697995 0.276-5.692994 0.573999-14.501986 2.343998-19.902981 7.745992l0.153 0.319c-1.329999 1.029999-2.615997 2.143998-3.836996 3.364997L11.716491 605.010406c-15.620985 15.620985-15.620985 40.94796 0 56.568945l350.704656 350.704656c7.809992 7.809992 18.046982 11.715989 28.283972 11.715989s20.47398-3.904996 28.283972-11.715989l505.904504-505.904504c1.224999-1.224999 2.341998-2.514998 3.373997-3.848996l0.309 0.166c0 0 6.624994-10.788989 9.419991-26.405974 2.695997-15.062985 22.130978-364.582642 22.130978-364.582642s-1.767998-18.737982-14.123986-31.09497c-8.502992-8.502992-15.399985-12.950987-32.308968-14.395986C913.123606 66.167935 912.168607 66.143935 910.867608 66.143935L910.867608 66.143935zM390.705119 950.058067 73.94143 633.294379 555.999957 151.666851c0 0 278.633727-17.335983 329.380676-17.336983 3.144997 0 5.409995 0.066 6.683993 0.208C894.683624 156.517846 871.332647 468.99954 871.332647 468.99954l-3.544997 3.544997 0.008 0.007L390.705119 950.058067 390.705119 950.058067zM673.639841 315.35969c9.74999 0 18.914982 3.796996 25.808975 10.69099 14.230986 14.230986 14.230986 37.386963 0 51.61895-6.893993 6.893993-16.059984 10.69099-25.808975 10.69099s-18.914982-3.796996-25.808975-10.69099c-14.230986-14.230986-14.230986-37.386963 0-51.61895C654.72486 319.155686 663.890851 315.35969 673.639841 315.35969M673.640841 255.35975c-24.696976 0-49.392952 9.420991-68.235933 28.263972-37.685963 37.685963-37.685963 98.785904 0 136.471866 18.842982 18.842982 43.538957 28.263972 68.235933 28.263972 24.695976 0 49.392952-9.420991 68.235933-28.263972 37.685963-37.685963 37.685963-98.785904 0-136.471866C723.032793 264.78074 698.336817 255.35975 673.640841 255.35975L673.640841 255.35975z" p-id="8559" fill="#d4237a"></path></svg>